<svg xmlns="http://www.w3.org/2000/svg" viewBox="0 0 500 500"><g id="freepik--Floor--inject-110"><path id="freepik--floor--inject-110" d="M97.42,270.15c-84,48.47-83.95,127.07,0,175.54s220.09,48.47,304.05,0,84-127.07,0-175.54S181.38,221.67,97.42,270.15Z" style="fill:#fafafa"></path></g><g id="freepik--Shadow--inject-110"><ellipse id="freepik--shadow--inject-110" cx="179.38" cy="385.55" rx="97.49" ry="51.25" style="fill:#e0e0e0"></ellipse></g><g id="freepik--speech-bubbles--inject-110"><path id="freepik--speech-bubble--inject-110" d="M358.11,281.21c2.05,2.46,5.9,3.36,10.07,2.45-3.48,5.17-14.05,6.82-20,2.79a42.21,42.21,0,0,1-13.87,2.31c-19.35,0-35.05-12.67-35.05-28.29s15.7-28.29,35.05-28.29,35,12.66,35,28.29C369.34,268.67,365,276.05,358.11,281.21Z" style="fill:#e0e0e0"></path><path id="freepik--speech-bubble--inject-110" d="M304.62,114.32c1.67,2,4.81,2.73,8.22,2-2.85,4.21-11.46,5.56-16.33,2.27a34.25,34.25,0,0,1-11.3,1.88c-15.78,0-28.57-10.32-28.57-23s12.79-23.06,28.57-23.06,28.57,10.32,28.57,23.06C313.78,104.09,310.25,110.1,304.62,114.32Z" style="fill:#e0e0e0"></path></g><g id="freepik--Business--inject-110"><g id="freepik--speech-bubble--inject-110"><path d="M456.55,320.78c-7.48-10.92-30.31-14.33-42.85-5.5a87.17,87.17,0,0,0-43.26-11.1c-41,0-74.16,26.43-74.16,59s33.2,59,74.16,59,74.15-26.44,74.15-59c0-11.9-4.44-23-12-32.25C435,322.11,445.22,318.35,456.55,320.78Z" style="fill:#22BCEA"></path><path d="M456.55,320.78c-7.48-10.92-30.31-14.33-42.85-5.5a87.17,87.17,0,0,0-43.26-11.1c-41,0-74.16,26.43-74.16,59s33.2,59,74.16,59,74.15-26.44,74.15-59c0-11.9-4.44-23-12-32.25C435,322.11,445.22,318.35,456.55,320.78Z" style="fill:#fff;opacity:0.6000000000000001"></path><path d="M367.26,358.43H350.05v28.25h17.21Zm24.68-12.52H374.72v40.77h17.22Zm-49.35-11.82H325.37v52.59h17.22ZM399.4,368v18.73h17.22V368Zm-74,23.51h91.25v-1.73H325.37Z" style="fill:#fff"></path></g></g><g id="freepik--Music--inject-110"><g id="freepik--speech-bubble--inject-110"><path d="M463.67,218.23c2.8-3.36,8.07-4.59,13.79-3.35-4.77-7.07-19.24-9.34-27.42-3.82a57.7,57.7,0,0,0-19-3.16c-26.51,0-48,17.35-48,38.74s21.49,38.74,48,38.74,48-17.34,48-38.74C479.05,235.42,473.12,225.31,463.67,218.23Z" style="fill:#22BCEA"></path><path id="freepik--musical-note--inject-110" d="M414,233l3.87,23.21a6.35,6.35,0,0,0-2.09,0,6.16,6.16,0,1,0,7.1,5.05l-3.46-20.8,20-9h0L442.9,252a6.09,6.09,0,0,0-2.09,0,6.16,6.16,0,1,0,7.1,5h0l-5.8-34.42Z" style="fill:#fff"></path></g></g><g id="freepik--Video--inject-110"><g id="freepik--speech-bubble--inject-110"><path d="M449.25,161.91c12.34-9.24,20.07-22.42,20.07-37.07,0-27.91-28-50.54-62.62-50.54s-62.62,22.63-62.62,50.54,28,50.54,62.62,50.54a75.32,75.32,0,0,0,24.78-4.12c10.67,7.21,29.54,4.25,35.77-5C459.79,167.9,452.91,166.29,449.25,161.91Z" style="fill:#22BCEA"></path><path d="M449.25,161.91c12.34-9.24,20.07-22.42,20.07-37.07,0-27.91-28-50.54-62.62-50.54s-62.62,22.63-62.62,50.54,28,50.54,62.62,50.54a75.32,75.32,0,0,0,24.78-4.12c10.67,7.21,29.54,4.25,35.77-5C459.79,167.9,452.91,166.29,449.25,161.91Z" style="fill:#fff;opacity:0.6000000000000001"></path><path d="M390.22,140.65V109a2.53,2.53,0,0,1,3.55-2.32l35.77,15.82a2.52,2.52,0,0,1,0,4.62L393.77,143A2.53,2.53,0,0,1,390.22,140.65Z" style="fill:#fff"></path></g></g><g id="freepik--Image--inject-110"><g id="freepik--speech-bubble--inject-110"><path d="M359.73,207.05c10.26-7.68,16.69-18.64,16.69-30.82,0-23.21-23.32-42-52.07-42s-52.07,18.82-52.07,42,23.31,42,52.07,42a62.68,62.68,0,0,0,20.6-3.43c8.88,6,24.57,3.53,29.75-4.15C368.49,212,362.78,210.7,359.73,207.05Z" style="fill:#22BCEA"></path><path d="M359.73,207.05c10.26-7.68,16.69-18.64,16.69-30.82,0-23.21-23.32-42-52.07-42s-52.07,18.82-52.07,42,23.31,42,52.07,42a62.68,62.68,0,0,0,20.6-3.43c8.88,6,24.57,3.53,29.75-4.15C368.49,212,362.78,210.7,359.73,207.05Z" style="fill:#fff;opacity:0.30000000000000004"></path><path d="M351.57,155.08H297.12a2.4,2.4,0,0,0-2.39,2.39V195a2.4,2.4,0,0,0,2.39,2.4h54.45A2.41,2.41,0,0,0,354,195V157.47A2.4,2.4,0,0,0,351.57,155.08Zm.6,39.34a1.42,1.42,0,0,1-1.42,1.42H298a1.42,1.42,0,0,1-1.42-1.42V158a1.42,1.42,0,0,1,1.42-1.42h52.8a1.42,1.42,0,0,1,1.42,1.42Z" style="fill:#fff"></path><path d="M348.11,159.4H300.58A1.63,1.63,0,0,0,299,161v22.08l13.05-12,15.62,13.31-4.18-6.65,10.84-10.22,15.47,15.14V161A1.64,1.64,0,0,0,348.11,159.4Zm-26.8,11.21a3,3,0,1,1,3-3A3,3,0,0,1,321.31,170.61Z" style="fill:#fff"></path></g></g><g id="freepik--Plants--inject-110"><g id="freepik--plants--inject-110"><g id="freepik--plants--inject-110"><path d="M51.86,408.05a8.9,8.9,0,0,0-8.38,4.5c-2.42,3.95-2.92,8.9-2.56,9.32s5.16-.77,8.54-5A10.42,10.42,0,0,0,51.86,408.05Z" style="fill:#22BCEA"></path><path d="M62.75,404.31a8.92,8.92,0,0,0-5.4,7.83c-.35,4.62,1.46,9.25,2,9.46s4.23-3,5.31-8.37A10.42,10.42,0,0,0,62.75,404.31Z" style="fill:#22BCEA"></path><path d="M63.17,395.47a8.94,8.94,0,0,0-8.64-4c-4.62.46-8.63,2.59-8.75,3.13s4.09,4.06,8.95,4.52C60,399.65,62.18,396.37,63.17,395.47Z" style="fill:#22BCEA"></path><path d="M101.15,384.77c-4.15-.41-8.4.52-12.41,1.54a70.11,70.11,0,0,0-11,3.83,91.37,91.37,0,0,0-20.64,12.63C53.14,406,49,409.62,46.28,414c-.06.1.14.29.22.21A72.43,72.43,0,0,1,57,404.75a85.8,85.8,0,0,1,10.41-7.22,87.78,87.78,0,0,1,19.78-8.45c4.58-1.36,9.27-1.93,14-2.75A.78.78,0,0,0,101.15,384.77Z" style="fill:#37474f"></path><path d="M66.92,395.84a28.21,28.21,0,0,0-6.16-1.33,15.93,15.93,0,0,0-6,.27c-.27.08.13.24.3.24a46.17,46.17,0,0,1,5.37.48,20.27,20.27,0,0,1,5.46,1.66,1.27,1.27,0,0,0,1.42-.29A.68.68,0,0,0,66.92,395.84Z" style="fill:#37474f"></path><path d="M66.36,396.39c-2,2.19-3,4.45-4.28,7.65a27.13,27.13,0,0,0-1.17,3.85,16.2,16.2,0,0,0-.39,4.74c0,.06.2.41.22.29a41.07,41.07,0,0,1,1-4.56,23.63,23.63,0,0,1,1.43-4A38,38,0,0,1,67.34,397C67.69,396.54,66.7,396,66.36,396.39Z" style="fill:#37474f"></path><path d="M77.6,395.65a8.91,8.91,0,0,0-6.92,6.52c-1.3,4.45-.5,9.36,0,9.67s4.78-2.09,6.94-7.07A10.47,10.47,0,0,0,77.6,395.65Z" style="fill:#22BCEA"></path><path d="M82.77,388.65c-2.39,1.73-3.86,3.72-5.77,6.6a26.14,26.14,0,0,0-2,3.51,16,16,0,0,0-1.37,4.56c0,.06.11.44.15.33a40.39,40.39,0,0,1,1.91-4.25A24.56,24.56,0,0,1,78,395.78a37.68,37.68,0,0,1,5.64-6.3C84.05,389.08,83.19,388.36,82.77,388.65Z" style="fill:#37474f"></path></g><g id="freepik--plants--inject-110"><path d="M30.89,374.18a9.76,9.76,0,0,1-10-2.95c-3.49-3.7-5.14-8.9-4.85-9.43s5.72-.33,10.31,3.47A11.44,11.44,0,0,1,30.89,374.18Z" style="fill:#22BCEA"></path><path d="M43.43,375.75a9.77,9.77,0,0,1-7.56-7.19c-1.41-4.89-.51-10.27,0-10.61s5.23,2.31,7.58,7.79A11.42,11.42,0,0,1,43.43,375.75Z" style="fill:#22BCEA"></path><path d="M45.87,385.15a9.79,9.79,0,0,1-8.39,6.21c-5.06.54-9.86-.84-10.11-1.39s3.49-5.28,8.6-6.87C41.55,381.37,44.6,384.41,45.87,385.15Z" style="fill:#22BCEA"></path><path d="M89.07,388.11c-4.37,1.37-9.14,1.33-13.67,1.13a76.15,76.15,0,0,1-12.67-1.64,99.81,99.81,0,0,1-25-8.93c-5-2.59-10.22-5.54-14.16-9.63-.08-.09.08-.34.18-.27a79.05,79.05,0,0,0,13.44,7.79A94.64,94.64,0,0,0,50,382a96.21,96.21,0,0,0,23.15,4.63c5.22.43,10.39,0,15.62-.19A.86.86,0,0,1,89.07,388.11Z" style="fill:#37474f"></path><path d="M49.81,383.91a31,31,0,0,1-6.31,2.82,17.68,17.68,0,0,1-6.51,1c-.31,0,.08-.28.27-.33a51,51,0,0,0,5.65-1.71,22.24,22.24,0,0,0,5.49-3,1.42,1.42,0,0,1,1.6,0A.74.74,0,0,1,49.81,383.91Z" style="fill:#37474f"></path><path d="M49.08,383.45c-2.62-1.91-4.22-4.1-6.31-7.26a28.48,28.48,0,0,1-2.12-3.87,17.11,17.11,0,0,1-1.48-5c0-.07.12-.49.16-.36a48.25,48.25,0,0,0,2.08,4.67,27.21,27.21,0,0,0,2.43,4A41.61,41.61,0,0,0,50,382.55C50.48,383,49.54,383.78,49.08,383.45Z" style="fill:#37474f"></path><path d="M61.33,381.72a9.77,9.77,0,0,1-8.9-5.46c-2.4-4.48-2.64-9.93-2.22-10.37s5.6,1.17,9,6A11.47,11.47,0,0,1,61.33,381.72Z" style="fill:#22BCEA"></path><path d="M68.46,388.07c-3-1.32-5-3.13-7.69-5.78A29.49,29.49,0,0,1,57.89,379a17.51,17.51,0,0,1-2.5-4.59c0-.07,0-.5.09-.38a44.9,44.9,0,0,0,3,4.13,26.32,26.32,0,0,0,3.2,3.38A41.74,41.74,0,0,0,69.17,387C69.73,387.32,69,388.3,68.46,388.07Z" style="fill:#37474f"></path></g></g></g><g id="freepik--Lines--inject-110"><path id="freepik--lines--inject-110" d="M49.85,139.21c1.63,2.27,3.28,4.54,4.94,6.79,3.37,4.58,6.7,9.19,10.18,13.69a2,2,0,0,0,2.17.57,1.89,1.89,0,0,0,1.21-.85,1.43,1.43,0,0,0,0-1.65c-3.44-4.34-6.93-8.65-10.28-13.07q-2.73-3.62-5.43-7.26c-1.4-1.91-2.88-4.69-5-5.88-.59-.34-2.35-.47-2.11.7C46.09,134.76,48.37,137.16,49.85,139.21Zm-5.71,25.44c5.39,1.84,10.74,3.73,16.17,5.44a2,2,0,0,0,2.11-.77,1.93,1.93,0,0,0,.51-1.39,1.44,1.44,0,0,0-.91-1.37c-5.3-1.61-10.63-3.16-15.9-4.88-2.87-.94-5.74-1.89-8.6-2.87-2.25-.76-5-2.21-7.44-2-.68.06-2.2.95-1.34,1.78,1.84,1.77,5.09,2.44,7.46,3.28C38.85,162.83,41.49,163.75,44.14,164.65Zm16.31,15.21a1.93,1.93,0,0,0-.25-1.46,1.42,1.42,0,0,0-1.46-.75c-5.41,1.22-10.81,2.5-16.24,3.61q-4.44.9-8.9,1.74c-2.33.45-5.47.57-7.45,1.95-.56.39-1.44,1.91-.28,2.21,2.47.63,5.63-.39,8.11-.83,2.76-.49,5.51-1,8.27-1.51,5.58-1.06,11.17-2.06,16.74-3.26A2,2,0,0,0,60.45,179.86Z" style="fill:#e0e0e0"></path></g><g id="freepik--Character--inject-110"><g id="freepik--character--inject-110"><path d="M129.52,90.7l.21.56a69.28,69.28,0,0,1,3.86,15.79,91.66,91.66,0,0,1,.55,16.56c-.14,2.66-.39,5.3-.72,7.94a14.55,14.55,0,0,0-.25,2.46,8.56,8.56,0,0,0,.37,1.74,12.37,12.37,0,0,1,.3,2.71,109.17,109.17,0,0,1-.3,13.29,185.22,185.22,0,0,1-4.37,26.35c-1,4.48-2.15,8.94-3.29,13.4-1.23,4.79-2.47,9.58-3.38,14.44-2,10.84-2.33,21.93-4.23,32.79s-5.64,21.82-13.3,29.74c-.7.72-3,2.92-4.08,2-.93-.78-.19-3-.23-4a48.36,48.36,0,0,0-7.3-23.59,17,17,0,0,1-2-3.23c-.15-.43-.22-.88-.4-1.3-.48-1.13-2.11-2.4-2.11-3.6-3-4.83-6.13-9.63-7.89-15-3.21-9.82-1.46-20.57,1.37-30.5a28.73,28.73,0,0,0-8.09,23.14A51.89,51.89,0,0,1,73,174.17c2-5.36,4.78-10.39,6.44-15.85,3.19-10.49,1.83-21.74,1.48-32.71a90.61,90.61,0,0,1,.88-16.12,41.54,41.54,0,0,1,14.72-25.9,28.21,28.21,0,0,1,13.69-6.4c5.17-.71,11.46-1.65,15.53,1.56.93.73,0,4.09.62,5.13A60.19,60.19,0,0,1,129.52,90.7Z" style="fill:#263238"></path><g id="freepik--Chest--inject-110"><path d="M270.4,252.77h0c-8.06-20.6-20.77-37.1-28.7-47.12-11.9-12.6-26.1-10.24-45.08-9.67l9.67,58.26c0,9.13,13.51,16.54,30.18,16.54C253.58,270.63,271.26,262.91,270.4,252.77Z" style="fill:#455a64"></path><path id="freepik--chest--inject-110" d="M247.32,322.8c.8-17.24,1.52-33,1.52-33s13.67-8.55,11.15-30.06c-1.55-13.25-10.93-27.51-25.7-40.17-10.62-9.1-37.66-23.58-37.66-23.58l-11.47.42-56.19,10-17.34,5.22c-5.36,2.74-16.35,24.5-12.08,61.38,1.34,11.62,15.59,31.91,18.57,48.35-1.44,27-11.29,27.26-19.47,54.12,0,9.89,13.86,22.51,28.65,29,28.45,12.39,73.64,12.68,103.7,1.18,17.08-6.53,31.74-17.68,31.69-27.58C262.69,378.07,251.84,336.61,247.32,322.8Z" style="fill:#22BCEA"></path></g><g id="freepik--Head--inject-110"><path d="M135.77,174.06c-6.48-5.9-30.82-17.18-36.54-44.21C95.65,112.91,100.6,99.2,107.79,87c13.61-23.14,59.76-37,88.33-15.16,28.38-.12,38.67,43.2,11.93,53.17C186.55,147.66,135.77,174.06,135.77,174.06Z" style="fill:#455a64"></path><g id="freepik--head--inject-110"><path d="M207.19,99c-.55-1.45-4.63-3.1-6-3.74a36.21,36.21,0,0,0-7.36-2.61A43,43,0,0,0,177.8,92c-9.73,1.42-20.81,6.85-23,17.43-1,5-.07,10.82-3.38,14.71-1.37,1.61-3.38,2.73-4.25,4.65-1.18,2.64.2,5.9-1,8.55-.6,1.35-2.41,3-4,2.76-1.39-.18-2.13-1.74-2.84-2.81-1.8-2.7-3.47-5.75-6.2-7.75-5.09-3.71-11.68-1.33-15.66,2.53-5.72,5.54-5.24,19,2.28,25.79,9.38,8.45,18.48,2.21,18.62.38,0,0,.36,9-2.6,15.85,0,0,0,17.61,0,20.74.06,4.88-.4,8.85-6.8,11.65,15,12.8,59.28,32.14,68.21,26.06,7.54-5.14-1.24-27.27-12-36.11-1.12-.32-4.86-.53-5-4.81-.1-4.5,0-2.86,0-2.86,9.76.46,13.88-.2,19.34-3.33,8.16-4.66,15.24-13.75,15.24-43.21,0-10.81-4.13-14-3.47-18.86C213.19,109.64,209.08,103.89,207.19,99Z" style="fill:#ffbda7"></path><path d="M151.46,182.37A28.63,28.63,0,0,1,140.33,171a21.94,21.94,0,0,0,9,14.61c11,7.62,27.73,8.33,31.51,8.39a5,5,0,0,1-.6-2.42c0-1.66-.05-2.48-.05-2.86C170.26,188.08,159,186.35,151.46,182.37Z" style="fill:#f0997a"></path><path d="M193.75,113.86l9.92-4.8a5.28,5.28,0,0,1-2.36,7.3A5.79,5.79,0,0,1,193.75,113.86Z" style="fill:#263238"></path><path d="M191.23,110.14a.73.73,0,0,0-.86.25,6.39,6.39,0,0,0,.28,6,3.82,3.82,0,0,0,.74.86,2.41,2.41,0,0,0,1.18.64.27.27,0,0,0,.29-.15c.17-.41-.23-.88-.42-1.24s-.31-.54-.45-.81a6.29,6.29,0,0,1-.56-1.61,6.22,6.22,0,0,1,.31-3.28C191.84,110.51,191.49,110.22,191.23,110.14Z" style="fill:#f0997a"></path><path d="M174.66,110.19a3.62,3.62,0,0,0-.89-.71,2.34,2.34,0,0,0-1.27-.41.25.25,0,0,0-.26.2c-.09.43.39.82.64,1.14s.4.47.59.72a6,6,0,0,1,.84,1.47,6.32,6.32,0,0,1,.3,3.28c-.05.33.35.55.61.58a.74.74,0,0,0,.81-.4,6.39,6.39,0,0,0-1.37-5.87Z" style="fill:#f0997a"></path><path d="M162.25,121.11l9.44-5.94a5.36,5.36,0,0,0-7.54-1.9A5.87,5.87,0,0,0,162.25,121.11Z" style="fill:#263238"></path><polygon points="204.31 145.2 188.59 153.34 183.26 122.1 204.31 145.2" style="fill:#f0997a"></polygon><path d="M184.7,161.23a1.8,1.8,0,0,1,1.38-.86c-1.94-.89-5.92,0-6.54,2.83h0a3.51,3.51,0,1,0,5.15-2Z" style="fill:#b16668"></path><path d="M174.87,133.88a4.48,4.48,0,1,1-4.66-4.3A4.48,4.48,0,0,1,174.87,133.88Z" style="fill:#263238"></path><path d="M206.88,128.7a4.48,4.48,0,1,1-4.66-4.3A4.48,4.48,0,0,1,206.88,128.7Z" style="fill:#263238"></path></g></g><path d="M269.54,216.66a71.33,71.33,0,0,1-12.9-21.85c-3-8.53-10.61-18.75-13.26-21.84s-8.15-7.48-12.44-11.76-5.54-5.46-11.18-5.88c-7.73-.58-13.82-1.23-16.72,0s-2.63,3.13.21,5.53,8.35,2.53,10.1,2.89,5.6,1.63,5.6,1.63l8,9.73s-11.76,3.32-14,4.82-3.67,7.75-2.33,11c0,0-4.11,3.38-2,7.54,0,0-2.36,3.75-.25,6.44a46.78,46.78,0,0,0,7.85,7.25c1.58,1.12,7.37.9,7.37.9s2.12,5.43,10,9.63c4.53,2.42,6.62,6.28,10.49,14.57Z" style="fill:#ffbda7"></path><path d="M247.31,177.08c-1.28-1.5-2.63-2.93-3.9-4.41-2.24-2.6-6-5.74-8.54-8.13-9.26-8.56-7.12-9.19-20.39-10a59.67,59.67,0,0,0-8.87-.21,7.09,7.09,0,0,0-4.31,1.58c-1.41,1.28-.33,3.3.81,4.35,2.82,3,7.35,3.18,11.12,3.76,1.84.41,3.7,1,5.52,1.58l7.67,9.28c-4.55,1.44-9.53,2.61-13.69,4.89-2.6,2.38-3.4,7.78-2.24,11a8.12,8.12,0,0,0-2.26,3.46,5.4,5.4,0,0,0,.38,4.15,6.82,6.82,0,0,0-1,4.89,4.35,4.35,0,0,0,.76,1.52c-1.44-1.89-.82-4.51.31-6.4-1.32-2.71-.12-5.68,2.11-7.53-1.23-3.22-.2-10.43,3.59-11.5a135.51,135.51,0,0,1,13.09-4.18l-.31-.38-8-9.75-.07-.08-.09,0c-1.88-.6-3.73-1.21-5.69-1.65-2.92-.46-5.82-.64-8.47-1.93-2-1-5.54-4.25-2-5.69a14.21,14.21,0,0,1,5.63-.75c3.4,0,8.27.52,11.71.73a12.57,12.57,0,0,1,5.5,1.45c3.23,2.09,5.74,5.32,8.7,7.79,2.52,2.32,6.38,5.46,8.59,8a73.31,73.31,0,0,1,13.56,21.86C254.69,189.23,251.13,181.53,247.31,177.08Z" style="fill:#f0997a"></path><path d="M221.69,176.64c-1.81-1.14-4.66-3.12-7.24-1.85s-.36,4.52-.36,4.52Z" style="fill:#f0997a"></path><path d="M222,183.62a29.62,29.62,0,0,0-8.12,2.74,33.5,33.5,0,0,0-3.65,2.25,7.47,7.47,0,0,0,.47,2.24l.19.08a22.1,22.1,0,0,1,5.29-4.35C218,185.45,222,183.62,222,183.62Z" style="fill:#f0997a"></path><path d="M210.65,194.9a20.9,20.9,0,0,0-2.55,1.59,5.7,5.7,0,0,0,.63,2c1.36-2.37,7-5.42,7-5.42A24.69,24.69,0,0,0,210.65,194.9Z" style="fill:#f0997a"></path><path d="M223.64,213a40.94,40.94,0,0,0-5.54-7.43c-1.91-1.82-5.24-1.21-5.89,0s3.22.7,4.4,1.09S221.37,210.05,223.64,213Z" style="fill:#f0997a"></path><path d="M230.49,174.45s-3-3.17-7.35-7.72-4.07-3.86-7.95-4.26c-3.62-.38-11.2-1-13.37-3.11a9.6,9.6,0,0,0,1.2,1.17c2.75,2.33,8.35,2.54,10.1,2.89s5.61,1.63,5.61,1.63l8.79,10.2Z" style="fill:#f0997a"></path><path d="M315.21,272.68a39.32,39.32,0,0,0-5.88-11.07c-8.57-10.33-32.9-36.91-39.79-45l-25.42,20.55s.31,1.12,12.3,29c3.67,8.52,7,18,10.93,26.42,2.91,6.27,9.94,13,17.31,18.07a49.82,49.82,0,0,0,13.58,5.76,14.36,14.36,0,0,0,9.86-.86c3.56-1.69,6.38-6.9,7.31-10.39A73.8,73.8,0,0,0,317,279.51,29.71,29.71,0,0,0,315.21,272.68Z" style="fill:#ffbda7"></path><g id="freepik--Arm--inject-110"><g id="freepik--arm--inject-110"><path d="M90.77,425.2c-2.82-3.08-6.44-5.79-7.62-10a7.15,7.15,0,0,1,1-6.36,3.12,3.12,0,0,0,.76-1.16,2.64,2.64,0,0,0,0-1.15,7.74,7.74,0,0,1,.31-4.74,4.89,4.89,0,0,1,3-2.57,11.39,11.39,0,0,1,.06-7.16c.94-2.72,3.75-4.89,5.59-1.85A25.36,25.36,0,0,1,96,395a55.7,55.7,0,0,1,2.71,12.71c.46,4.5,1.53,17.24-5.44,17.84C92.71,425.6,91.17,425.63,90.77,425.2Z" style="fill:#f0997a"></path><path d="M111.63,211.67c-30.4,8.69-35.37,19.06-51.36,41.07-15.78,21.73-27.76,37.63-34.39,49.83-7,12.86-7.7,18,7.33,34.46,7.82,8.55,17.28,17,31.54,29.77,6.33,5.65,23.62,20.67,26.19,23.21,2.19,2.18,4.59,7.48,5.32,10.61a8.09,8.09,0,0,1,.22,1.62c.09,2.33-.55,4.61-.83,6.92a35,35,0,0,0,.36,9.25c.39,2.56,1.06,5-1.84,6.39a7,7,0,0,1-3.4.4,24.56,24.56,0,0,0,6.55,3.57,10,10,0,0,0,7.32-.24,78,78,0,0,1,8.68-3.85c1.26-.37,2.6-.31,3.87-.64a6.36,6.36,0,0,0,3.32-2.17c1.33-1.67,1.87-4.07,3.75-5.09a25.22,25.22,0,0,1,2.9-.95,6.5,6.5,0,0,0,3.6-4.8,17.54,17.54,0,0,0-.15-6.21c-.83-5.54-1.78-11.57-3.15-17-1.79-7.05-3.78-10.7-6.63-14.67C111.49,360.09,76,315.58,76,315.58l31.47-34.45C114.63,275.39,129.83,234.91,111.63,211.67Z" style="fill:#ffbda7"></path><path d="M76,315.58c-8.17,8-20.84,8.64-25.5,8.36,16.46,6.71,28.72-4.3,28.72-4.3Z" style="fill:#f0997a"></path></g></g><path d="M111.54,92.64C107,100,105.07,104.86,104,113c-.9,7,.25,13.65,1.94,17.56,1.07,2.46,4.33,2.34,5.67,0,3.75-6.53,9.15-8.42,14.8-9,10.14-1,21.68,6.11,23.42-11.79,1.34-13.81,14.4-20.33,23.93-21.9,8.28-1.36,13.09-1.18,16.77-.78,4.24.48,6.36-.66,7.06-2.47,1.93-5-5.3-10-10.81-12.83C163.2,59.76,127.63,66.4,111.54,92.64Z" style="fill:#22BCEA"></path><path d="M111.54,92.64C107,100,105.07,104.86,104,113c-.9,7,.25,13.65,1.94,17.56,1.07,2.46,4.33,2.34,5.67,0,3.75-6.53,9.15-8.42,14.8-9,10.14-1,21.68,6.11,23.42-11.79,1.34-13.81,14.4-20.33,23.93-21.9,8.28-1.36,13.09-1.18,16.77-.78,4.24.48,6.36-.66,7.06-2.47,1.93-5-5.3-10-10.81-12.83C163.2,59.76,127.63,66.4,111.54,92.64Z" style="fill:#fff;opacity:0.6000000000000001"></path><path d="M147.69,100.27l-3.13-.86a1.21,1.21,0,0,1-.77-.93,12.4,12.4,0,0,0-.39-1.73,1.52,1.52,0,0,1,.63-1.38l1.83-1.58c.48-.41.69-1,.48-1.26l-2.14-3c-.21-.29-.79-.3-1.3,0l-2.28,1.23a1.53,1.53,0,0,1-1.44.1,11.82,11.82,0,0,0-1.64-1,1.21,1.21,0,0,1-.55-1.1l.21-2.94a.87.87,0,0,0-.67-.93L133,84.32a1,1,0,0,0-1,.76l-.8,2.63a1.48,1.48,0,0,1-1.11,1,14,14,0,0,0-1.46.32,1.43,1.43,0,0,1-1.34-.18l-2.22-2.45c-.24-.26-.84-.2-1.34.15l-2.36,1.62c-.5.35-.76.88-.58,1.2l1.6,2.84a1.65,1.65,0,0,1-.37,1.44c-.22.3-.42.62-.61.94a1.59,1.59,0,0,1-1.26.86L117,95.27a1,1,0,0,0-.93.81l-.59,3.18a.89.89,0,0,0,.52,1l3.14.86a1.15,1.15,0,0,1,.76.92,11.15,11.15,0,0,0,.4,1.73,1.59,1.59,0,0,1-.63,1.39l-1.84,1.58c-.47.4-.68,1-.48,1.26l2.14,3c.21.29.8.3,1.31,0l2.27-1.23a1.54,1.54,0,0,1,1.44-.11,11.56,11.56,0,0,0,1.65,1,1.23,1.23,0,0,1,.55,1.1l-.22,2.94a.86.86,0,0,0,.68.93l3.53.58a1,1,0,0,0,1-.77l.8-2.63a1.52,1.52,0,0,1,1.12-1,11.7,11.7,0,0,0,1.45-.32,1.48,1.48,0,0,1,1.34.18l2.22,2.46c.24.26.84.19,1.34-.15l2.36-1.63c.5-.34.76-.88.58-1.19l-1.59-2.85c-.18-.31,0-1,.36-1.44a9.29,9.29,0,0,0,.61-.93,1.64,1.64,0,0,1,1.26-.87l3.13.17a1,1,0,0,0,.94-.81l.59-3.17A.89.89,0,0,0,147.69,100.27Zm-8.9,1.14a7.15,7.15,0,0,1-8.19,5.65,6.79,6.79,0,0,1-5.69-7.91,7.15,7.15,0,0,1,8.2-5.64A6.77,6.77,0,0,1,138.79,101.41Zm26.32-18.1-1.9-1.09a.81.81,0,0,1-.34-.74,7.94,7.94,0,0,0,0-1.19,1.08,1.08,0,0,1,.64-.8l1.47-.71c.38-.19.61-.52.53-.74l-.89-2.3c-.09-.23-.47-.34-.85-.24l-1.69.41a1,1,0,0,1-1-.17,7.26,7.26,0,0,0-.9-.94.82.82,0,0,1-.17-.81l.64-1.88a.58.58,0,0,0-.28-.72l-2.21-1a.66.66,0,0,0-.78.33l-1,1.58a1,1,0,0,1-.9.45c-.33,0-.67,0-1,0a1,1,0,0,1-.84-.34l-1-2c-.11-.21-.51-.27-.9-.13l-1.81.65c-.39.14-.65.45-.59.69l.56,2.12c.06.24-.17.62-.49.88s-.38.33-.55.5a1.12,1.12,0,0,1-1,.36l-2-.65a.65.65,0,0,0-.75.37l-.93,2a.59.59,0,0,0,.17.76l1.9,1.1a.79.79,0,0,1,.34.73,8,8,0,0,0,0,1.2,1,1,0,0,1-.65.79l-1.46.72c-.38.18-.61.52-.53.74l.89,2.3c.09.23.47.33.85.24l1.69-.42a1,1,0,0,1,1,.18,7.26,7.26,0,0,0,.9.94.82.82,0,0,1,.17.81l-.64,1.88a.58.58,0,0,0,.28.72l2.21,1a.68.68,0,0,0,.78-.33l1-1.58a1,1,0,0,1,.89-.45,8.52,8.52,0,0,0,1,0,1,1,0,0,1,.84.35l1,2c.11.21.51.27.9.13l1.81-.66c.39-.14.65-.44.59-.68l-.56-2.12c-.06-.24.17-.62.49-.88s.37-.33.55-.51a1.11,1.11,0,0,1,1-.35l2,.65a.65.65,0,0,0,.75-.37l.92-2A.6.6,0,0,0,165.11,83.31Zm-6-.77a4.82,4.82,0,0,1-6.3,2.29,4.57,4.57,0,0,1-2.37-6.12,4.82,4.82,0,0,1,6.31-2.29A4.56,4.56,0,0,1,159.11,82.54Z" style="fill:#fff"></path></g></g></svg>